<svg width="38" height="40" viewBox="0 0 38 40" fill="none" xmlns="http://www.w3.org/2000/svg">
<path fill-rule="evenodd" clip-rule="evenodd" d="M4.13077 1.66699C2.76442 1.66699 1.6525 2.78365 1.6525 4.16698V27.5002C1.6525 28.8835 2.76442 30.0002 4.13077 30.0002H33.8699C35.2362 30.0002 36.3482 28.8835 36.3482 27.5002V4.16698C36.3482 2.78365 35.2362 1.66699 33.8699 1.66699H4.13077ZM33.8696 31.6665H4.13043C1.85374 31.6665 0 29.7999 0 27.4999V4.16665C0 1.86666 1.85374 0 4.13043 0H33.8696C36.1463 0 38 1.86666 38 4.16665V27.4999C38 29.7999 36.1463 31.6665 33.8696 31.6665Z" fill="white"/>
<path fill-rule="evenodd" clip-rule="evenodd" d="M8.40159 38.3327H29.599C29.257 37.366 28.3384 36.666 27.2612 36.666H10.7394C9.6622 36.666 8.74359 37.366 8.40159 38.3327ZM30.5656 40H7.43513C6.97913 40 6.60904 39.6333 6.60904 39.1666C6.60904 36.8667 8.46278 35 10.7395 35H27.2612C29.5379 35 31.3916 36.8667 31.3916 39.1666C31.3916 39.6333 31.0216 40 30.5656 40Z" fill="white"/>
<path fill-rule="evenodd" clip-rule="evenodd" d="M37.1739 26.6662H0.826087C0.370087 26.6662 0 26.2995 0 25.8328C0 25.3662 0.370087 24.9995 0.826087 24.9995H37.1739C37.6299 24.9995 38 25.3662 38 25.8328C38 26.2995 37.6299 26.6662 37.1739 26.6662Z" fill="white"/>
<path d="M18.1005 20.8078C18.1005 18.3 18.5328 16.2244 19.3974 14.5811C20.2669 12.9379 21.1116 11.2677 21.9314 9.57077H16.7291L16.4683 10.9804C16.4037 11.1469 16.3068 11.2892 16.1776 11.4074C16.0484 11.5255 15.8919 11.5846 15.708 11.5846C15.5242 11.5846 15.3602 11.5362 15.2161 11.4396C15.072 11.3429 15 11.1952 15 10.9965C15 10.9428 15.0025 10.8891 15.0075 10.8354C15.0174 10.7817 15.0298 10.7307 15.0447 10.6824L15.4323 8.62831C15.482 8.43498 15.5515 8.28193 15.641 8.16916C15.7304 8.05639 15.8646 8 16.0434 8L23.109 8.00806C23.2581 8.00806 23.4022 8.06444 23.5413 8.17722C23.6804 8.28462 23.75 8.42961 23.75 8.6122C23.75 8.64442 23.7475 8.67664 23.7425 8.70886C23.7376 8.74108 23.7301 8.77599 23.7202 8.81358C23.1289 10.8596 22.3438 12.6935 21.365 14.3153C20.3911 15.9317 19.9042 18.1013 19.9042 20.8239C19.9042 21.1784 19.8296 21.463 19.6806 21.6778C19.5315 21.8926 19.3104 22 19.0172 22C18.7142 22 18.4856 21.8899 18.3316 21.6697C18.1775 21.4496 18.1005 21.1623 18.1005 20.8078Z" fill="#FFF4F4"/>
<path fill-rule="evenodd" clip-rule="evenodd" d="M32.2508 28.3332C31.7948 28.3332 31.4165 27.9665 31.4165 27.4998C31.4165 27.0332 31.7783 26.6665 32.2343 26.6665H32.2508C32.7068 26.6665 33.0769 27.0332 33.0769 27.4998C33.0769 27.9665 32.7068 28.3332 32.2508 28.3332Z" fill="white"/>
<path fill-rule="evenodd" clip-rule="evenodd" d="M17.3478 36.6671C16.8918 36.6671 16.5217 36.3005 16.5217 35.8338V30.8338C16.5217 30.3672 16.8918 30.0005 17.3478 30.0005C17.8038 30.0005 18.1738 30.3672 18.1738 30.8338V35.8338C18.1738 36.3005 17.8038 36.6671 17.3478 36.6671Z" fill="white"/>
<path fill-rule="evenodd" clip-rule="evenodd" d="M20.6523 36.6671C20.1963 36.6671 19.8262 36.3005 19.8262 35.8338V30.8338C19.8262 30.3672 20.1963 30.0005 20.6523 30.0005C21.1083 30.0005 21.4783 30.3672 21.4783 30.8338V35.8338C21.4783 36.3005 21.1083 36.6671 20.6523 36.6671Z" fill="white"/>
<path fill-rule="evenodd" clip-rule="evenodd" d="M37.1739 4.99991H0.826087C0.370087 4.99991 0 4.63325 0 4.16658C0 3.69992 0.370087 3.33325 0.826087 3.33325H37.1739C37.6299 3.33325 38 3.69992 38 4.16658C38 4.63325 37.6299 4.99991 37.1739 4.99991Z" fill="white"/>
</svg>
