<svg width="40" height="41" viewBox="0 0 40 41" fill="none" xmlns="http://www.w3.org/2000/svg">
<path d="M18.1005 32.8078C18.1005 30.3 18.5328 28.2244 19.3974 26.5811C20.2669 24.9379 21.1116 23.2677 21.9314 21.5708H16.7291L16.4683 22.9804C16.4037 23.1469 16.3068 23.2892 16.1776 23.4074C16.0484 23.5255 15.8919 23.5846 15.708 23.5846C15.5242 23.5846 15.3602 23.5362 15.2161 23.4396C15.072 23.3429 15 23.1952 15 22.9965C15 22.9428 15.0025 22.8891 15.0075 22.8354C15.0174 22.7817 15.0298 22.7307 15.0447 22.6824L15.4323 20.6283C15.482 20.435 15.5515 20.2819 15.641 20.1692C15.7304 20.0564 15.8646 20 16.0434 20L23.109 20.0081C23.2581 20.0081 23.4022 20.0644 23.5413 20.1772C23.6804 20.2846 23.75 20.4296 23.75 20.6122C23.75 20.6444 23.7475 20.6766 23.7425 20.7089C23.7376 20.7411 23.7301 20.776 23.7202 20.8136C23.1289 22.8596 22.3438 24.6935 21.365 26.3153C20.3911 27.9317 19.9042 30.1013 19.9042 32.8239C19.9042 33.1784 19.8296 33.463 19.6806 33.6778C19.5315 33.8926 19.3104 34 19.0172 34C18.7142 34 18.4856 33.8899 18.3316 33.6697C18.1775 33.4496 18.1005 33.1623 18.1005 32.8078Z" fill="#FFF4F4"/>
<path fill-rule="evenodd" clip-rule="evenodd" d="M34.1667 41H5.83333C2.61667 41 0 38.3595 0 35.1136V9.88636C0 6.64045 2.61667 4 5.83333 4C6.29333 4 6.66667 4.37 6.66667 4.84091C6.66667 5.31182 6.29333 5.68182 5.83333 5.68182C3.53667 5.68182 1.66667 7.56545 1.66667 9.88636V35.1136C1.66667 37.4345 3.53667 39.3182 5.83333 39.3182H34.1667C36.4633 39.3182 38.3333 37.4345 38.3333 35.1136V9.88636C38.3333 7.56545 36.4633 5.68182 34.1667 5.68182C33.7067 5.68182 33.3333 5.31182 33.3333 4.84091C33.3333 4.37 33.7067 4 34.1667 4C37.3833 4 40 6.64045 40 9.88636V35.1136C40 38.3595 37.3833 41 34.1667 41Z" fill="#E3E3E3"/>
<path fill-rule="evenodd" clip-rule="evenodd" d="M27.2 5H12.8C12.3584 5 12 4.56 12 4C12 3.44 12.3584 3 12.8 3H27.2C27.6416 3 28 3.44 28 4C28 4.56 27.6416 5 27.2 5Z" fill="#E3E3E3"/>
<path fill-rule="evenodd" clip-rule="evenodd" d="M9 9C8.448 9 8 8.604 8 8.1V0.9C8 0.396 8.448 0 9 0C9.552 0 10 0.396 10 0.9V8.1C10 8.604 9.552 9 9 9Z" fill="#E3E3E3"/>
<path fill-rule="evenodd" clip-rule="evenodd" d="M31 9C30.448 9 30 8.604 30 8.1V0.9C30 0.396 30.448 0 31 0C31.552 0 32 0.396 32 0.9V8.1C32 8.604 31.552 9 31 9Z" fill="#E3E3E3"/>
<path fill-rule="evenodd" clip-rule="evenodd" d="M39.1667 14H0.833333C0.373333 14 0 13.56 0 13C0 12.44 0.373333 12 0.833333 12H39.1667C39.6267 12 40 12.44 40 13C40 13.56 39.6267 14 39.1667 14Z" fill="#E3E3E3"/>
</svg>
