<svg width="40" height="40" viewBox="0 0 40 40" fill="none" xmlns="http://www.w3.org/2000/svg">
<path fill-rule="evenodd" clip-rule="evenodd" d="M11.6669 18.3334C11.7719 18.3334 11.8785 18.3534 11.9802 18.3951C12.2269 18.4951 12.4119 18.7067 12.4752 18.9667C13.6518 23.715 16.5368 26.6667 20.0002 26.6667C23.4635 26.6667 26.3485 23.715 27.5251 18.9667C27.5884 18.7067 27.7734 18.4951 28.0218 18.3951C28.2084 18.3184 28.4151 18.3134 28.6018 18.3784H28.6034C28.6868 18.3784 28.7851 18.3634 28.8684 18.3551C28.9918 18.3417 29.0984 18.3334 29.1668 18.3334C29.3734 18.3334 30.0001 17.4467 30.0001 15.8334C30.0001 15.2634 29.9184 14.7151 29.7618 14.2484C29.7151 14.1051 29.7068 13.9534 29.7401 13.8067C29.9168 12.9951 30.0001 12.3151 30.0001 11.6667C30.0001 6.15178 25.5151 1.6668 20.0002 1.6668C14.4852 1.6668 10.0002 6.15178 10.0002 11.6667C10.0002 12.3151 10.0835 12.9951 10.2602 13.8067C10.2935 13.9534 10.2852 14.1051 10.2385 14.2484C10.0819 14.7151 10.0002 15.2634 10.0002 15.8334C10.0002 17.4467 10.6269 18.3334 10.8335 18.3334C10.9019 18.3334 11.0085 18.3417 11.1319 18.3551C11.2152 18.3634 11.3135 18.3784 11.3969 18.3784H11.3985C11.4852 18.3484 11.5752 18.3334 11.6669 18.3334ZM19.9998 28.3332C15.9015 28.3332 12.5099 25.1665 11.0315 20.0199C11.0065 20.0182 10.9832 20.0149 10.9582 20.0116C9.4082 19.9999 8.33321 18.2082 8.33321 15.8333C8.33321 15.1733 8.42154 14.5266 8.58654 13.9466C8.41487 13.1066 8.33321 12.3783 8.33321 11.6666C8.33321 5.23331 13.5682 0 19.9998 0C26.4315 0 31.6664 5.23331 31.6664 11.6666C31.6664 12.3783 31.5848 13.1066 31.4131 13.9466C31.5781 14.5266 31.6664 15.1733 31.6664 15.8333C31.6664 18.2082 30.5914 19.9999 29.1664 19.9999C29.0981 20.0066 29.0331 20.0132 28.9681 20.0199C27.4898 25.1665 24.0981 28.3332 19.9998 28.3332Z" fill="white"/>
<path fill-rule="evenodd" clip-rule="evenodd" d="M22.5003 11.6668C22.1636 11.6668 21.8453 11.4601 21.7203 11.1268L20.0003 6.54011L18.2803 11.1268C18.117 11.5584 17.632 11.7718 17.207 11.6134C16.7753 11.4518 16.5587 10.9718 16.7203 10.5401L19.2203 3.87345C19.4653 3.22512 20.5353 3.22512 20.7803 3.87345L23.2803 10.5401C23.442 10.9718 23.2253 11.4518 22.7936 11.6134C22.697 11.6501 22.5986 11.6668 22.5003 11.6668Z" fill="white"/>
<path fill-rule="evenodd" clip-rule="evenodd" d="M21.6666 9.99991H18.3333C17.8733 9.99991 17.5 9.62658 17.5 9.16658C17.5 8.70658 17.8733 8.33325 18.3333 8.33325H21.6666C22.1266 8.33325 22.5 8.70658 22.5 9.16658C22.5 9.62658 22.1266 9.99991 21.6666 9.99991Z" fill="white"/>
<path fill-rule="evenodd" clip-rule="evenodd" d="M9.167 15.0003C8.89867 15.0003 8.63534 14.8703 8.47367 14.6287L5.14036 9.6287C4.99702 9.41537 4.96202 9.14704 5.04202 8.90371L6.70868 3.90373C6.82702 3.55207 7.09201 3.29207 7.53368 3.33373C7.90201 3.34873 8.22034 3.6054 8.30867 3.9654L9.97533 10.632C10.087 11.077 9.817 11.5304 9.36867 11.642C8.92701 11.7504 8.46867 11.482 8.35867 11.0354L7.38701 7.14538L6.75368 9.04371L9.86033 13.7054C10.1153 14.0887 10.012 14.6053 9.62867 14.8603C9.487 14.9553 9.327 15.0003 9.167 15.0003Z" fill="white"/>
<path fill-rule="evenodd" clip-rule="evenodd" d="M30.8335 14.9999C30.6735 14.9999 30.5135 14.9549 30.3718 14.8599C29.9885 14.6049 29.8852 14.0883 30.1402 13.7049L33.2468 9.04328L32.6135 7.14496L31.6418 11.0349C31.5302 11.4816 31.0835 11.7516 30.6318 11.6416C30.1835 11.5299 29.9135 11.0766 30.0252 10.6316L31.6918 3.96497C31.7802 3.60497 32.0985 3.34831 32.4668 3.33331C32.9085 3.29831 33.1735 3.55164 33.2918 3.90331L34.9585 8.90328C35.0385 9.14661 35.0035 9.41495 34.8602 9.62828L31.5268 14.6283C31.3652 14.8699 31.1018 14.9999 30.8335 14.9999Z" fill="white"/>
<path fill-rule="evenodd" clip-rule="evenodd" d="M14.9997 13.333C13.333 13.333 13.333 13.9596 13.333 14.1663C13.333 14.373 13.333 14.9996 14.9997 14.9996C16.613 14.9996 17.4997 14.3746 17.4997 14.1663C17.4997 13.958 16.613 13.333 14.9997 13.333ZM15.0001 16.6667C11.9085 16.6667 11.6668 14.7534 11.6668 14.1667C11.6668 13.5801 11.9085 11.6667 15.0001 11.6667C17.3751 11.6667 19.1668 12.7417 19.1668 14.1667C19.1668 15.5917 17.3751 16.6667 15.0001 16.6667Z" fill="white"/>
<path fill-rule="evenodd" clip-rule="evenodd" d="M25.0002 13.333C23.3869 13.333 22.5002 13.958 22.5002 14.1663C22.5002 14.3746 23.3869 14.9996 25.0002 14.9996C26.6668 14.9996 26.6668 14.373 26.6668 14.1663C26.6668 13.9596 26.6668 13.333 25.0002 13.333ZM24.9999 16.6667C22.6249 16.6667 20.8332 15.5917 20.8332 14.1667C20.8332 12.7417 22.6249 11.6667 24.9999 11.6667C28.0915 11.6667 28.3332 13.5801 28.3332 14.1667C28.3332 14.7534 28.0915 16.6667 24.9999 16.6667Z" fill="white"/>
<path fill-rule="evenodd" clip-rule="evenodd" d="M26.1783 38.3336H38.3333V34.3886C38.3333 32.617 37.2083 31.0353 35.535 30.452L28.3967 27.9703C26.0333 30.3586 23.0717 31.667 20 31.667C16.9284 31.667 13.9667 30.3586 11.6034 27.9703L4.46512 30.452C2.79179 31.0353 1.6668 32.617 1.6668 34.3886V38.3336H13.8217L13.5767 38.0903C13.3401 37.8503 13.2684 37.4936 13.3967 37.1819C13.5251 36.8703 13.8301 36.6669 14.1667 36.6669H17.8184L19.255 33.7936C19.5384 33.2303 20.4617 33.2303 20.745 33.7936L22.1817 36.6669H25.8333C26.17 36.6669 26.475 36.8703 26.6033 37.1819C26.7317 37.4936 26.66 37.8503 26.4233 38.0903L26.1783 38.3336ZM39.1665 40H24.1666C23.8299 40 23.5249 39.7966 23.3966 39.485C23.2682 39.1733 23.3399 38.8166 23.5766 38.5766L23.8216 38.3333H21.6666C21.3516 38.3333 21.0632 38.155 20.9216 37.8733L19.9999 36.03L19.0782 37.8733C18.9366 38.155 18.6482 38.3333 18.3332 38.3333H16.1783L16.4233 38.5766C16.6599 38.8166 16.7316 39.1733 16.6033 39.485C16.4749 39.7966 16.1699 40 15.8333 40H0.833329C0.373332 40 0 39.6266 0 39.1666V34.3883C0 31.9083 1.57333 29.6933 3.91831 28.8783L11.5633 26.22C11.8783 26.11 12.2266 26.1984 12.4499 26.4434C14.5516 28.7367 17.2333 30 19.9999 30C22.7666 30 25.4482 28.7367 27.5499 26.4434C27.7732 26.1984 28.1215 26.11 28.4382 26.22L36.0815 28.8783C38.4265 29.6933 39.9998 31.9083 39.9998 34.3883V39.1666C39.9998 39.6266 39.6265 40 39.1665 40Z" fill="white"/>
<path fill-rule="evenodd" clip-rule="evenodd" d="M21.6666 23.3334H18.3333C17.8733 23.3334 17.5 22.9601 17.5 22.5001C17.5 22.0401 17.8733 21.6667 18.3333 21.6667H21.6666C22.1266 21.6667 22.5 22.0401 22.5 22.5001C22.5 22.9601 22.1266 23.3334 21.6666 23.3334Z" fill="white"/>
</svg>
