<svg width="30" height="40" viewBox="0 0 30 40" fill="none" xmlns="http://www.w3.org/2000/svg">
<path fill-rule="evenodd" clip-rule="evenodd" d="M1.66641 38.3335H28.3331V1.6668H11.1781L1.66641 11.1835V38.3335ZM29.1667 40H0.833333C0.373333 40 0 39.6333 0 39.1667V10.8333C0 10.6167 0.0883333 10.4 0.243333 10.25L10.2433 0.25C10.4 0.0833334 10.6117 0 10.8333 0H29.1667C29.6267 0 30 0.366667 30 0.833333V39.1667C30 39.6333 29.6267 40 29.1667 40Z" fill="white"/>
<path fill-rule="evenodd" clip-rule="evenodd" d="M10.8333 11.6667H0.833333C0.373333 11.6667 0 11.3 0 10.8333C0 10.3667 0.373333 10 0.833333 10H10V0.833333C10 0.366667 10.3733 0 10.8333 0C11.2933 0 11.6667 0.366667 11.6667 0.833333V10.8333C11.6667 11.3 11.2933 11.6667 10.8333 11.6667Z" fill="white"/>
<path fill-rule="evenodd" clip-rule="evenodd" d="M24.1663 15.0002H5.83294C5.37294 15.0002 4.9996 14.6335 4.9996 14.1668C4.9996 13.7002 5.37294 13.3335 5.83294 13.3335H24.1663C24.6263 13.3335 24.9996 13.7002 24.9996 14.1668C24.9996 14.6335 24.6263 15.0002 24.1663 15.0002Z" fill="white"/>
<path fill-rule="evenodd" clip-rule="evenodd" d="M24.1667 9.99992H15.8333C15.3733 9.99992 15 9.63325 15 9.16659C15 8.69992 15.3733 8.33325 15.8333 8.33325H24.1667C24.6267 8.33325 25 8.69992 25 9.16659C25 9.63325 24.6267 9.99992 24.1667 9.99992Z" fill="white"/>
<path fill-rule="evenodd" clip-rule="evenodd" d="M24.1663 20.0002H5.83294C5.37294 20.0002 4.9996 19.6335 4.9996 19.1668C4.9996 18.7002 5.37294 18.3335 5.83294 18.3335H24.1663C24.6263 18.3335 24.9996 18.7002 24.9996 19.1668C24.9996 19.6335 24.6263 20.0002 24.1663 20.0002Z" fill="white"/>
<path fill-rule="evenodd" clip-rule="evenodd" d="M24.1663 24.9999H5.83294C5.37294 24.9999 4.9996 24.6333 4.9996 24.1666C4.9996 23.6999 5.37294 23.3333 5.83294 23.3333H24.1663C24.6263 23.3333 24.9996 23.6999 24.9996 24.1666C24.9996 24.6333 24.6263 24.9999 24.1663 24.9999Z" fill="white"/>
<path fill-rule="evenodd" clip-rule="evenodd" d="M24.1663 30.0002H5.83294C5.37294 30.0002 4.9996 29.6335 4.9996 29.1668C4.9996 28.7002 5.37294 28.3335 5.83294 28.3335H24.1663C24.6263 28.3335 24.9996 28.7002 24.9996 29.1668C24.9996 29.6335 24.6263 30.0002 24.1663 30.0002Z" fill="white"/>
<path fill-rule="evenodd" clip-rule="evenodd" d="M24.1663 35.0002H5.83294C5.37294 35.0002 4.9996 34.6335 4.9996 34.1668C4.9996 33.7002 5.37294 33.3335 5.83294 33.3335H24.1663C24.6263 33.3335 24.9996 33.7002 24.9996 34.1668C24.9996 34.6335 24.6263 35.0002 24.1663 35.0002Z" fill="white"/>
</svg>
