<svg width="46" height="40" viewBox="0 0 46 40" fill="none" xmlns="http://www.w3.org/2000/svg">
<path fill-rule="evenodd" clip-rule="evenodd" d="M22.0418 40.0002C9.88813 40.0002 0 30.1754 0 18.0954C0 17.5697 0.429335 17.1431 0.958338 17.1431C1.48734 17.1431 1.91668 17.5697 1.91668 18.0954C1.91668 29.124 10.9442 38.0954 22.0418 38.0954C33.1393 38.0954 42.1669 29.124 42.1669 18.0954C42.1669 17.5697 42.5962 17.1431 43.1252 17.1431C43.6542 17.1431 44.0835 17.5697 44.0835 18.0954C44.0835 30.1754 34.1954 40.0002 22.0418 40.0002Z" fill="white"/>
<path fill-rule="evenodd" clip-rule="evenodd" d="M30.6666 20.9526H22.0415C21.5125 20.9526 21.0832 20.5279 21.0832 20.0002C21.0832 19.4745 21.5125 19.0479 22.0415 19.0479H30.6666C31.1956 19.0479 31.6249 19.4745 31.6249 20.0002C31.6249 20.5279 31.1956 20.9526 30.6666 20.9526Z" fill="white"/>
<path fill-rule="evenodd" clip-rule="evenodd" d="M22.0418 24.7615C11.088 24.7615 0 22.4719 0 18.0948C0 12.5443 17.7446 10.3996 30.5422 11.9081C31.0674 11.971 31.4431 12.4434 31.3817 12.9653C31.3204 13.4891 30.8451 13.8643 30.318 13.7996C27.6864 13.491 24.9034 13.3329 22.0418 13.3329C9.75588 13.3329 1.91668 16.1538 1.91668 18.0948C1.91668 20.0376 9.75588 22.8567 22.0418 22.8567C34.3277 22.8567 42.1669 20.0376 42.1669 18.0948C42.1669 17.131 39.8726 15.6053 34.8356 14.5329C34.3181 14.4224 33.9865 13.9176 34.0996 13.4034C34.2088 12.8891 34.7167 12.5538 35.2362 12.67C39.2727 13.5291 44.0835 15.1672 44.0835 18.0948C44.0835 22.4719 32.9956 24.7615 22.0418 24.7615Z" fill="white"/>
<path fill-rule="evenodd" clip-rule="evenodd" d="M3.83122 20.9697C3.30222 20.9697 2.8748 20.5278 2.8748 20.0002C2.8748 16.2421 14.923 15.2383 22.0416 15.2383C23.8145 15.2383 25.5912 15.2935 27.322 15.4021C27.851 15.4345 28.2516 15.8878 28.219 16.4116C28.1864 16.9373 27.7226 17.324 27.2032 17.303C25.5107 17.1983 23.7742 17.143 22.0416 17.143C11.3791 17.143 5.14223 19.023 4.78764 20.0326C4.78764 20.5583 4.36022 20.9697 3.83122 20.9697Z" fill="white"/>
<path fill-rule="evenodd" clip-rule="evenodd" d="M27.7915 20.9524C27.527 20.9524 27.2644 20.8457 27.0746 20.6343C26.7239 20.24 26.7584 19.6381 27.1552 19.2895L43.5178 4.83619C43.8781 4.51809 44.0832 4.06095 44.0832 3.58286C44.0832 2.65714 43.3261 1.90476 42.3966 1.90476C41.9097 1.90476 41.4516 2.10667 41.1315 2.46095L24.6711 20.6381C24.3185 21.0305 23.7128 21.0609 23.318 20.7086C22.9231 20.3562 22.8925 19.7543 23.2451 19.3638L39.7075 1.18667C40.3898 0.434286 41.3673 0 42.387 0C44.3841 0 45.9999 1.60762 45.9999 3.58095C45.9999 4.60381 45.5591 5.58095 44.7905 6.25905L28.4278 20.7124C28.2457 20.8743 28.0177 20.9524 27.7915 20.9524Z" fill="white"/>
</svg>
